HIERARCHY
ROOT pelvis
{
  OFFSET 0 100 0
  CHANNELS 6 Xposition Yposition Zposition Zrotation Xrotation Yrotation
  JOINT pelvis_right_femur
  {
    OFFSET -10.78128 -3.44521 -0.5502486
    CHANNELS 3 Zrotation Xrotation Yrotation
    JOINT right_femur_tibia
    {
      OFFSET -0.8047443 -44.0398 -0.1307829
      CHANNELS 3 Zrotation Xrotation Yrotation
      JOINT right_tibia_foot
      {
        OFFSET 3.006224 -47.83518 -5
        CHANNELS 3 Zrotation Xrotation Yrotation
        End Site
        {
          OFFSET 0 -5 15
        }
      }
    }
  }
  JOINT pelvis_left_femur
  {
    OFFSET 10.78128 -3.44521 -0.5502486
    CHANNELS 3 Zrotation Xrotation Yrotation
    JOINT left_femur_tibia
    {
      OFFSET 0.8047443 -44.0398 -0.1307829
      CHANNELS 3 Zrotation Xrotation Yrotation
      JOINT left_tibia_foot
      {
        OFFSET -4.370144 -48.10324 -4.275266
        CHANNELS 3 Zrotation Xrotation Yrotation
        End Site
        {
          OFFSET 0 -5 15
        }
      }
    }
  }
  JOINT pelvis_spine1
  {
    OFFSET 0 6.468898 -3.129235
    CHANNELS 3 Zrotation Xrotation Yrotation
    JOINT spine1
    {
      OFFSET 0 23.15396 4.99043
      CHANNELS 3 Zrotation Xrotation Yrotation
      JOINT spine2
      {
        OFFSET 0 20.79997 -5.064912
        CHANNELS 3 Zrotation Xrotation Yrotation
        JOINT neck
        {
          OFFSET 0 14.38658 9.616178
          CHANNELS 3 Zrotation Xrotation Yrotation
          End Site
          {
            OFFSET 0 20 0
          }
        }
      }
      JOINT right_manubrium
      {
        OFFSET -5.722621 16.35077 3.967754
        CHANNELS 3 Zrotation Xrotation Yrotation
        JOINT right_clavicle
        {
          OFFSET -13.16364 1.694482 -4.693211
          CHANNELS 3 Zrotation Xrotation Yrotation
          JOINT right_humerus
          {
            OFFSET -28.5034 -0.3100689 -2.792744
            CHANNELS 3 Zrotation Xrotation Yrotation
            JOINT right_radius
            {
              OFFSET -25.15693 0.02248979 -1.271978
              CHANNELS 3 Zrotation Xrotation Yrotation
              End Site
              {
                OFFSET -15 0 0
              }
            }
          }
        }
      }
      JOINT left_manubrium
      {
        OFFSET 5.722621 16.35077 3.967754
        CHANNELS 3 Zrotation Xrotation Yrotation
        JOINT left_clavicle
        {
          OFFSET 13.16364 1.694482 -4.693211
          CHANNELS 3 Zrotation Xrotation Yrotation
          JOINT left_humerus
          {
            OFFSET 29.39168 -1.063119 -2.237045
            CHANNELS 3 Zrotation Xrotation Yrotation
            JOINT left_radius
            {
              OFFSET 24.59957 -0.9528479 0.9047498
              CHANNELS 3 Zrotation Xrotation Yrotation
              End Site
              {
                OFFSET 15 -0 -0
              }
            }
          }
        }
      }
    }
  }
}
MOTION
Frames: 13
Frame Time: 0.0416666666667
27.27469 101.2437 257.655 -0.4616265 -3.358402 -0.308351 3.83345 11.18772 8.708901 -0 25.20792 -0 7.250296 -15.06444 -5.463054 3.562981 -29.32067 -0.8782629 -0 24.8117 -0 -9.00793 -9.712415 18.66535 1.480323 -1.876483 9.373241 -2.403321 10.9937 -2.829362 1.552408 18.62694 5.878143 2.15309 -18.31538 5.960036 0.3700208 -24.2149 11.03084 81.19706 22.43879 -3.415595 -0 0 25.76155 -24.64577 9.181032 13.56562 3.019477 -16.09049 -2.239305 -90.21814 21.61241 26.36389 0 0 -13.38414 -2.907205 3.020238 19.99046
28.60901 100.8012 265.2517 -0.5106021 -3.59328 -0.8646245 3.218628 11.88147 8.252782 -0 31.07314 -0 9.064417 -11.99403 -6.139856 2.398667 -29.14241 -2.068294 -0 25.06724 -0 -8.686982 -9.382739 17.92597 1.524674 -2.682937 9.548461 -2.546449 10.9185 -2.614516 1.805595 18.78606 5.738346 2.116344 -18.4139 6.115094 0.4037608 -23.46523 10.66519 81.33707 21.78526 -3.605567 -0 0 26.07093 -24.80464 8.875879 13.61047 2.69129 -15.21931 -2.116505 -90.37198 21.69343 26.89048 0 0 -12.63724 -3.15907 3.068012 20.39062
29.7982 100.7634 272.6426 -0.498093 -3.54406 -0.7501724 2.857688 11.60524 7.592485 -0 38.41656 -0 10.97307 -7.893149 -6.988621 1.240456 -27.03189 -3.181889 -0 26.72433 -0 -8.182706 -9.915479 17.19771 1.291023 -3.674849 9.524785 -2.543247 10.7817 -2.51227 2.011154 19.01054 5.637763 2.071365 -18.39392 6.268794 0.6854556 -22.43413 10.35129 81.9022 21.4613 -4.470283 -0 0 25.27666 -24.69028 8.704312 13.33365 2.616316 -14.7782 -2.062642 -89.93892 21.88723 26.53901 0 0 -12.61774 -3.231394 3.223621 20.46782
31.01153 101.4425 279.8366 -0.4697402 -3.415735 -0.4453579 2.316496 8.487047 6.677738 -0 46.24666 -0 12.16579 -5.957915 -7.770042 0.1915683 -23.78203 -4.078915 -0 28.38312 -0 -7.502624 -11.38674 16.36218 1.139793 -4.541946 9.203229 -2.627817 10.89345 -2.448723 2.129274 19.47862 5.533848 1.970801 -18.31006 6.374124 1.39223 -21.38276 10.22061 82.68742 21.43739 -5.699108 -0 0 23.55604 -24.26251 8.675371 12.74878 2.295092 -14.67398 -2.012311 -89.06048 22.16592 25.54215 0 0 -12.85567 -3.105612 3.498189 20.28998
32.10383 102.4301 286.4918 -0.420105 -3.171845 0.1321171 2.126482 3.614959 5.934419 -0 53.95428 -0 12.12227 -4.986172 -9.054322 -0.6410873 -19.92443 -4.659622 -0 28.50417 -0 -6.837109 -13.21738 15.47085 1.126129 -5.310461 8.553713 -2.718366 10.81629 -2.501465 1.91365 19.82032 5.661196 1.673121 -18.40075 6.541962 2.286651 -20.26505 10.27079 83.69362 21.66409 -7.193529 -0 0 21.3261 -23.55334 8.748948 11.9888 1.976507 -14.97243 -2.082247 -87.73558 22.5249 23.66791 0 0 -13.46391 -2.809368 3.883803 19.92495
33.10481 103.9204 292.4685 -0.3853402 -2.986848 0.5695084 2.904177 -4.154715 5.423305 -0 58.44975 -0 11.02985 -5.441413 -9.592199 -1.146224 -15.24551 -4.887126 -0 27.04858 -0 -6.457895 -14.63623 14.52601 1.00076 -5.793651 7.605129 -2.656907 10.87811 -2.808007 1.760595 20.54264 5.816579 1.424243 -18.17189 6.808604 3.110761 -19.42849 10.35047 84.73324 22.02161 -8.63022 -0 0 19.26027 -22.69488 8.85719 11.26916 1.710193 -15.81051 -2.451732 -86.21854 22.89245 21.09355 0 0 -14.47193 -2.423667 4.351492 19.42608
33.98195 105.339 298.1268 -0.3161679 -2.595361 1.485169 3.126374 -10.77262 5.098495 -0 58.9152 -0 9.821688 -5.324236 -10.22485 -1.618687 -10.70491 -5.049485 -0 24.37846 -0 -6.286143 -15.74497 13.57694 0.6669498 -6.32482 6.434499 -2.295801 10.8522 -3.630589 1.822479 21.23921 5.856884 1.293803 -17.79892 7.088687 3.373929 -18.59543 10.02458 85.82762 22.35674 -10.19446 -0 0 17.69138 -21.84406 8.914968 10.72225 1.764407 -16.51639 -2.764373 -84.84732 23.16521 18.1786 0 0 -16.00997 -1.984231 4.879526 18.70759
34.80763 106.1921 303.5302 -0.176765 -1.693716 3.583268 3.622319 -16.77653 5.098997 -0 55.36036 -0 8.282888 -4.515129 -10.69939 -2.061993 -5.704976 -4.880952 -0 20.58805 -0 -6.205151 -16.93575 12.34915 0.1299602 -6.976245 5.040422 -1.740568 10.49782 -5.048656 2.138838 21.75762 5.757058 1.306941 -17.39555 7.370783 3.044214 -17.87144 9.365434 86.5969 22.60611 -11.76954 -0 0 16.47411 -21.07459 8.877489 10.3143 2.029972 -17.31919 -3.235639 -83.52751 23.44295 14.88677 0 0 -17.87009 -1.577878 5.438511 17.78884
35.7157 106.3085 309.3285 -0.07627322 -0.861607 5.510123 3.363204 -22.63238 5.281897 -0 48.80418 -0 6.618974 -4.113843 -11.71699 -2.141332 -1.524991 -4.84613 -0 17.30705 -0 -6.173524 -18.27486 11.06719 -0.4810129 -7.723065 3.764525 -1.024217 10.22347 -6.631528 2.55383 21.94147 5.563471 1.355774 -17.19809 7.608474 2.544177 -16.70414 8.476792 87.56616 22.70542 -13.75482 -0 0 15.08459 -20.12338 8.698086 9.733894 2.442438 -18.00636 -3.663073 -82.3169 23.73187 11.6361 0 0 -19.83082 -1.176904 6.035697 16.69357
36.38802 105.7205 315.0749 -0.008869134 -0.1190297 7.224953 2.549776 -28.37769 5.427379 -0 40.15833 -0 4.939859 -3.643146 -13.0525 -2.055233 2.229017 -4.775967 -0 15.32763 -0 -6.148344 -19.85287 9.95908 -0.9680823 -8.020679 2.966916 -0.3983774 9.98208 -7.78108 2.91956 22.19419 5.258756 1.371698 -17.02353 7.668945 2.026986 -15.77418 7.68166 88.12752 22.82238 -15.47051 -0 0 13.48523 -19.16063 8.488718 9.001286 2.938459 -19.01614 -3.706648 -80.97944 23.96193 8.230142 0 0 -22.03481 -0.6540494 6.711616 15.41082
37.03799 104.5083 320.5374 0.03063535 0.4842451 8.616473 1.18294 -32.25341 5.033046 -0 30.64404 -0 2.960452 -3.95468 -13.77889 -1.863911 5.284041 -4.845856 -0 14.70527 -0 -6.195653 -21.51969 9.103358 -1.315876 -8.104596 2.430267 0.1768879 9.266764 -8.563416 3.204679 22.00904 5.146499 1.311579 -17.32645 7.927971 1.677189 -14.86443 7.280685 88.58698 22.9947 -17.13013 -0 0 11.31581 -18.01233 8.300432 7.959514 3.423978 -20.23389 -3.941196 -79.58716 24.22877 4.949679 0 0 -23.96034 -0.07827891 7.411657 14.08732
37.51308 103.1096 326.278 0.04480252 0.7683584 9.271703 0.6241169 -34.22585 4.174427 -0 22.55813 -0 0.7056337 -4.751396 -14.1528 -1.600947 8.135069 -5.014173 -0 15.47381 -0 -6.392448 -22.85527 8.720948 -1.440141 -7.712069 2.405847 0.6015081 8.812508 -8.708549 3.382095 21.8636 5.024528 1.207997 -17.63309 8.072364 1.656575 -14.06609 7.170027 89.17911 23.20515 -18.47738 -0 0 8.974671 -16.67535 8.173424 6.765797 3.798923 -21.5142 -3.800068 -78.47447 24.41055 2.294956 0 0 -25.45167 0.5228095 8.044385 12.85202
37.91373 101.948 332.0601 0.0471141 0.813061 9.37479 0.6884414 -35.22874 3.861772 -0 18.11224 -0 -1.485024 -5.544446 -13.91907 -1.350815 10.60431 -5.234092 -0 17.55987 -0 -6.860512 -23.21469 8.767 -1.32863 -7.306439 2.530292 1.077145 8.652555 -8.530345 3.370375 21.99094 4.975665 1.041969 -17.77808 8.134221 1.956803 -13.65928 7.247262 89.76575 23.49397 -19.30029 -0 0 6.767465 -15.13549 8.137251 5.474241 4.008521 -22.20582 -3.649215 -77.71305 24.55087 0.3132178 0 0 -26.30038 1.09787 8.61176 11.78686
